<svg xmlns="http://www.w3.org/2000/svg" viewBox="0 0 1920 639.62"><defs><style>.cls-1{fill:#77eae2;}.cls-2{fill:#fedf64;}.cls-3,.cls-7{fill:#fdfdfa;}.cls-4{fill:#202a3e;}.cls-12,.cls-13,.cls-5{fill:#f3575b;}.cls-5{stroke:#f3575b;}.cls-11,.cls-12,.cls-15,.cls-5,.cls-6,.cls-9{stroke-miterlimit:10;}.cls-11,.cls-15,.cls-16,.cls-6,.cls-8,.cls-9{fill:none;}.cls-6{stroke:#d13939;}.cls-7,.cls-8,.cls-9{stroke:#fedf64;}.cls-16,.cls-7,.cls-8{stroke-linecap:round;stroke-linejoin:round;}.cls-10{fill:#52e1d7;}.cls-11,.cls-12{stroke:#fdfdfa;}.cls-14{fill:#32b676;}.cls-15{stroke:#1d9355;}.cls-16{stroke:#202a3e;stroke-width:6px;}</style></defs><title>jaspr_1</title><g id="Layer_2" data-name="Layer 2"><g id="Layer_1-2" data-name="Layer 1"><g id="Layer_2-2" data-name="Layer 2"><g id="Layer_2-2-2" data-name="Layer 2-2"><rect class="cls-1" width="1920" height="639.62"/><circle class="cls-2" cx="1501.17" cy="137.55" r="19"/><circle class="cls-2" cx="1521.17" cy="67.55" r="19"/><path class="cls-3" d="M1504.17,121.55a18,18,0,1,1-18,18,18,18,0,0,1,18-18m0-1a19,19,0,1,0,19,19,19,19,0,0,0-19-19Z"/><path class="cls-3" d="M1524.17,51.55a18,18,0,1,1-18,18,18,18,0,0,1,18-18m0-1a19,19,0,1,0,19,19h0A19,19,0,0,0,1524.17,50.55Z"/></g><g id="Layer_1-2-2" data-name="Layer 1-2"><path class="cls-4" d="M604.39,416s9.09,97.35,19.15,97.35,73.27-11.49,73.27-18.68-33-181-46-196.83S604.39,416,604.39,416"/><polygon class="cls-2" points="374.99 146.96 250.22 505.12 573.25 513.32 689.63 155.58 374.99 146.96"/><path class="cls-5" d="M457.74,244.88S432.32,229.63,403.52,255s-5.08,35.58-5.08,52.53-28.81,20.33-28.81,33.89,22,10.17,22,28.81-49.14,20.33-49.14,39,94.89,25.42,94.89,0c0-15.25-8.47-8.47-8.47-22s23.72-11.86,23.72-11.86Z"/><path class="cls-6" d="M474.65,320.2"/><path class="cls-3" d="M480.4,363.31a3.11,3.11,0,0,1-.45,0c-4-.38-59.74-5.87-61-18.63-1.26-13.23-5.18-76.3,17.77-87.31,14-6.72,97,12.78,85.5,24.78-6.82,7.14-11.15,34.06-13.53,54.7a30,30,0,0,1-28.33,26.47Z"/><path class="cls-7" d="M421.79,304.2c-1.23,4.26-3.41,9.09-7.08,9.78-4.68.87,1.73,5.83,6.08,8.78"/><polygon class="cls-3" points="487.86 365.74 481.22 394.84 432.15 382.91 435.36 353.56 487.86 365.74"/><path class="cls-8" d="M418.3,321.32c-.2,14,.09,25,1.43,26.09,2.25,1.74,4.25,4.74,19,9"/><path class="cls-9" d="M436.26,256.61s-15.12,11.92-17.09,34.89c-.18,4.66-.58,15.17-.72,20"/><path class="cls-10" d="M535.42,529.69c2.9-12.71,4.74-21.29,5-23.72,1.69-15.18,36.59-109.91,14-113.72-12.67-2.13-58.32-4.25-96.07-8.24A390.34,390.34,0,0,1,404,374.2s-102.61-21.68-107.4,21.33c-1.42,12.67-2.85,81.67-4,154.67"/><path class="cls-10" d="M528.3,387.48s14.23.23,34.71,8.2c13.81,5.37,23.21,26.88,29,49.89a140.49,140.49,0,0,1,.07,68.85A20.44,20.44,0,0,1,560.7,526.2l-46.6-32a20.46,20.46,0,0,1-8.21-22Z"/><path class="cls-10" d="M354,392s-12.29-7.18-33.93-11c-14.6-2.57-33.78,11-50.68,27.63-20.33,20.06-13.54,28.19-18.71,45-1.86,6-14.79,14-8.28,21.68,8.43,9.92-1,30.31,10.44,36.56l27.3,10.06c8.64-.49,16-20.34,18.44-28.64Z"/><path class="cls-3" d="M409.75,375.43a30.08,30.08,0,0,0-1.22,3.73c-12.4,45.94,55.62,66.19,70.91,21.13A61.06,61.06,0,0,0,482.75,384l-57.83-6.75"/><path class="cls-5" d="M443.4,242.69a61.16,61.16,0,0,0,20-4.92c13.63-6.2,37-9.31,64.48,18.22,28.2,28.2-5.88,39.43,3,48.29s38.92,16.16,38.92,30.66-24.55,24-24.55,36.86,27.74,26,27.74,42.1-27.39,22.56-54.78,22.56-54.78-12.89-54.78-29,20-15.4,20-29.9-14.37-11-14.37-28.73-11.49-18.19-11.49-35.92S436,301.12,436,265.67C436,247.78,439.74,243,443.4,242.69Z"/><path class="cls-4" d="M711.89,120.38H374.27a14.42,14.42,0,0,0-14,10.93,103.23,103.23,0,0,1-3,10.61L216.24,541.33a14.41,14.41,0,0,0,14.37,14.37h352A14.41,14.41,0,0,0,597,541.33l129.3-406.58A14.41,14.41,0,0,0,711.89,120.38ZM561.82,486.62a11,11,0,0,1-11,11H281.12a11,11,0,0,1-11-11l108.14-306c.94-2.65,1.58-5.39,2.26-8.13a11,11,0,0,1,10.69-8.37H649.88a11,11,0,0,1,11,11h0Z"/><path class="cls-11" d="M576.85,548.52h-352a14.41,14.41,0,0,1-14.37-14.37L351.63,134.73c1.22-3.46,2.07-7,3-10.61a14.42,14.42,0,0,1,13.9-10.92H706.15a14.41,14.41,0,0,1,14.37,14.37L591.21,534.15A14.41,14.41,0,0,1,576.85,548.52Z"/><path class="cls-11" d="M555.12,501.94H285.43a11,11,0,0,1-11-11h0l108.14-306c.94-2.65,1.58-5.39,2.26-8.13a11,11,0,0,1,10.69-8.37H654.19a11,11,0,0,1,11,11L566.13,490.93a11,11,0,0,1-11,11Z"/><path class="cls-12" d="M1574.39,462.69s-3.88,45.43,4.19,45.43,46.4,4,46.4-4v-30.3Z"/><path class="cls-12" d="M1356.49,464.71s-3.88,45.43,4.19,45.43,46.4,4,46.4-4v-30.3Z"/><path class="cls-12" d="M1326.23,470.76s-3.88,45.43,4.19,45.43,46.4,4,46.4-4v-30.3Z"/><path class="cls-12" d="M1600.61,468.74s-3.88,45.43,4.19,45.43,46.4,4,46.4-4-2-58.51-2-58.51Z"/><path class="cls-12" d="M1493.84,173.2c-141.23,0-208.82,120-238.07,149.3s-32.28,16.14-32.28,54.47,22.19,26.23,38.33,42.37S1314.28,498,1477.7,498c157.37,0,223.95-58.51,223.95-163.42S1586.65,173.2,1493.84,173.2Z"/><path class="cls-11" d="M1667.35,284.08s28.52,13.42,50.34,8.39c18-4.15,31.88-53.69,3.36-53.69s-20.14,33.56,1.68,33.56S1763,257.2,1763,238.78"/><path class="cls-13" d="M1399,239.79c0-26.23-6.05-58.51-20.18-58.51s-24.21,58.51-24.21,58.51"/><path class="cls-11" d="M1399,239.79c0-26.23-6.05-58.51-20.18-58.51s-24.21,58.51-24.21,58.51"/><path class="cls-12" d="M1229.54,354.79c9.65,0,7.94,33.29,1.45,33.29s-1.45-33.29-1.45-33.29"/><path class="cls-14" d="M1003.92,325.9s24.77-52.66,45.82-25.76c28,35.84-35.86,44.42-35.86,44.42"/><path class="cls-14" d="M933.51,245.09s-3.76-36.89,29-36.89,26.3,56.88-15.68,61.16"/><path class="cls-15" d="M1008.59,329s24.77-52.66,45.82-25.76c28,35.84-35.86,44.42-35.86,44.42"/><path class="cls-15" d="M938.19,248.2s-3.76-36.89,29-36.89,26.3,56.88-15.68,61.16"/><path class="cls-14" d="M918.84,384.29s-29.61-70.09,46.75-70.09,43.63,70.12,43.63,70.12Z"/><path class="cls-14" d="M917.16,336.54s-52.22-63.21-7.67-95.61c34.28-24.93,51.15,73.35,51.15,73.35"/><path class="cls-14" d="M915.53,340.57s-16.94-17-29.41-4.58-2.49,36.38,28.36,33"/><path class="cls-15" d="M922,387.41s-29.61-70.12,46.75-70.12,43.63,70.12,43.63,70.12Z"/><path class="cls-15" d="M920.28,339.65s-52.22-63.21-7.67-95.61c34.28-24.93,51.15,73.35,51.15,73.35"/><path class="cls-15" d="M918.64,343.68s-16.94-17-29.41-4.58-2.49,36.38,28.36,33"/><path class="cls-3" d="M941.32,212.76a73.21,73.21,0,0,1,6.34,8.56c.26.41.91,0,.65-.38a74.54,74.54,0,0,0-6.46-8.71C941.53,211.86,941,212.4,941.32,212.76Z"/><path class="cls-3" d="M963.57,217.46a15.86,15.86,0,0,1,1.21-8.22c.19-.44-.46-.82-.65-.38a16.57,16.57,0,0,0-1.31,8.6C962.87,217.93,963.62,217.94,963.57,217.46Z"/><path class="cls-3" d="M982.63,222.88l9.77-3.7c.45-.17.25-.89-.2-.72l-9.77,3.7C982,222.33,982.18,223,982.63,222.88Z"/><path class="cls-3" d="M981.68,237.94a41,41,0,0,0,15.14,5c.48.06.47-.69,0-.75a40,40,0,0,1-14.76-4.89.38.38,0,0,0-.38.65Z"/><path class="cls-3" d="M960,235.62a26.77,26.77,0,0,1-9.09-2c-.45-.19-.64.54-.2.72a27.34,27.34,0,0,0,9.29,2.08.38.38,0,0,0,0-.75Z"/><path class="cls-3" d="M946.27,245.1a22.38,22.38,0,0,0-7.25,2.41c-.43.23,0,.87.38.65a21.76,21.76,0,0,1,7.07-2.33c.48-.07.27-.79-.2-.72Z"/><path class="cls-3" d="M971.35,262.53a17.3,17.3,0,0,1,7.09,5.53c.29.38.94,0,.65-.38a18,18,0,0,0-7.36-5.8c-.44-.19-.82.46-.38.65Z"/><path class="cls-3" d="M903.39,254.62l-5.33-6.34c-.31-.37-.84.16-.53.53l5.33,6.34C903.17,255.52,903.7,255,903.39,254.62Z"/><path class="cls-3" d="M897.73,272.75a62,62,0,0,0-10.4,3.11c-.44.18-.25.9.2.72a62,62,0,0,1,10.4-3.11C898.4,273.37,898.2,272.65,897.73,272.75Z"/><path class="cls-3" d="M921.49,240.1v-5.18a.38.38,0,0,0-.75,0v5.18a.38.38,0,0,0,.75,0Z"/><path class="cls-3" d="M939.86,274.26l11,1.27c.48.06.47-.7,0-.75l-11-1.27C939.38,273.45,939.39,274.21,939.86,274.26Z"/><path class="cls-3" d="M919.63,277.3,914,281.36c-.39.28,0,.93.38.65l5.69-4.06c.39-.28,0-.93-.38-.65Z"/><path class="cls-3" d="M922,263.2a3.86,3.86,0,0,1,1.24-5.29c.41-.25,0-.9-.38-.65a4.62,4.62,0,0,0-1.51,6.32C921.64,264,922.29,263.58,922,263.2Z"/><path class="cls-3" d="M899.77,299.9A29.48,29.48,0,0,0,888,301.2c-.46.15-.26.87.2.72a29,29,0,0,1,11.55-1.25.38.38,0,0,0,0-.75Z"/><path class="cls-3" d="M954.87,291.95a11.77,11.77,0,0,1,6.5-6.07c.45-.17.25-.9-.2-.72a12.51,12.51,0,0,0-7,6.42c-.2.43.44.82.65.38Z"/><path class="cls-3" d="M932.21,301.26a19.89,19.89,0,0,0-10,1.09c-.45.17-.25.89.2.72A19.16,19.16,0,0,1,932,302c.47.07.68-.66.2-.72Z"/><path class="cls-3" d="M934,317.88a43.61,43.61,0,0,1,9.44,6.7c.35.33.88-.2.53-.53a44.34,44.34,0,0,0-9.59-6.81c-.43-.22-.81.42-.38.65Z"/><path class="cls-3" d="M923.2,340.78a15.55,15.55,0,0,1-6.12-6.5c-.22-.43-.87,0-.65.38a16.27,16.27,0,0,0,6.39,6.77.38.38,0,0,0,.38-.65Z"/><path class="cls-3" d="M967.91,317.8l1.31-5.82c.11-.47-.62-.67-.72-.2l-1.31,5.82C967.08,318.07,967.81,318.27,967.91,317.8Z"/><path class="cls-3" d="M957.9,333.58,945,337.5a.37.37,0,0,0,.2.72l12.93-3.92a.37.37,0,0,0-.2-.72Z"/><path class="cls-3" d="M976.93,340.49l2.72-5.11c.23-.43-.42-.81-.65-.38l-2.72,5.11C976,340.54,976.7,340.92,976.93,340.49Z"/><path class="cls-3" d="M968.35,355.61a30.49,30.49,0,0,0-8.57,1.7c-.45.16-.26.88.2.72a29.8,29.8,0,0,1,8.38-1.68c.48,0,.48-.78,0-.75Z"/><path class="cls-3" d="M944.62,367.57l-.91-7.17c-.06-.47-.81-.48-.75,0l.91,7.17C943.93,368,944.68,368,944.62,367.57Z"/><path class="cls-3" d="M927.32,359.14v-2.59a.38.38,0,0,0-.75,0v2.59a.38.38,0,0,0,.75,0Z"/><path class="cls-3" d="M995.13,358.35a13.24,13.24,0,0,0,5.81-4.89c.27-.4-.38-.78-.65-.38a12.57,12.57,0,0,1-5.54,4.62C994.31,357.89,994.69,358.54,995.13,358.35Z"/><path class="cls-3" d="M999.07,334.37l-1.29-1.94c-.27-.4-.92,0-.65.38l1.29,1.94C998.69,335.15,999.34,334.75,999.07,334.37Z"/><path class="cls-3" d="M1026.27,316.88a9.4,9.4,0,0,1-1.93-6.26.38.38,0,0,0-.75,0,10.05,10.05,0,0,0,2,6.64c.29.38.94,0,.65-.38Z"/><path class="cls-3" d="M1042.37,307.66a17.31,17.31,0,0,1,6.29-3.8c.45-.16.26-.88-.2-.72a18.24,18.24,0,0,0-6.63,4c-.35.33.18.86.53.53Z"/><path class="cls-3" d="M1051,327.07l9.75,5.09c.43.22.81-.42.38-.65l-9.75-5.09C1050.94,326.2,1050.56,326.84,1051,327.07Z"/><path class="cls-3" d="M1042.55,339.2l.61,4.53c.06.48.79.27.72-.2l-.61-4.53C1043.21,338.52,1042.48,338.73,1042.55,339.2Z"/><path class="cls-3" d="M1032.58,325.69l3.27-3.2c.35-.34-.19-.87-.53-.53l-3.27,3.2C1031.7,325.5,1032.24,326,1032.58,325.69Z"/><path class="cls-3" d="M904.19,352.27l-7.1,1.38c-.47.09-.27.82.2.72l7.1-1.38C904.86,352.9,904.66,352.17,904.19,352.27Z"/><path class="cls-3" d="M891.53,337.5,887.61,335c-.41-.26-.78.39-.38.65l3.92,2.52C891.56,338.41,891.93,337.76,891.53,337.5Z"/><path class="cls-3" d="M887,359.54l-2.33,5.29c-.19.44.45.82.65.38l2.33-5.29C887.83,359.48,887.19,359.1,887,359.54Z"/><path class="cls-3" d="M910.43,366.45l3.19,7.13c.2.44.84.06.65-.38l-3.19-7.13C910.88,365.63,910.24,366,910.43,366.45Z"/><path class="cls-3" d="M1012.34,376.34a57.23,57.23,0,0,0,13.73-2.48c.46-.14.26-.87-.2-.72a56.46,56.46,0,0,1-13.53,2.46c-.48,0-.48.78,0,.75Z"/><path class="cls-3" d="M987.87,374.2l-6.46-1.33c-.47-.1-.67.63-.2.72l6.46,1.33C988.14,375,988.34,374.29,987.87,374.2Z"/><path class="cls-3" d="M959.08,378.2,953.23,382c-.4.26,0,.91.38.65l5.85-3.83C959.86,378.59,959.46,377.94,959.08,378.2Z"/><path class="cls-3" d="M990,319.33l5.16-6.48c.3-.37-.23-.91-.53-.53l-5.16,6.48C989.16,319.17,989.69,319.71,990,319.33Z"/><path class="cls-13" d="M1014.17,522.2H924.32a20.17,20.17,0,0,1-20-20.26l-24-118.51H1058l-24,118.51A20.17,20.17,0,0,1,1014.17,522.2Z"/><path class="cls-16" d="M1453,198.2s31-11,77,0"/></g></g></g></g></svg>