<?xml version="1.0" encoding="UTF-8"?>
<svg width="68px" height="31px" viewBox="0 0 68 31" version="1.1" xmlns="http://www.w3.org/2000/svg" xmlns:xlink="http://www.w3.org/1999/xlink">
    <!-- Generator: Sketch 46.2 (44496) - http://www.bohemiancoding.com/sketch -->
    <title>Page 1</title>
    <desc>Created with Sketch.</desc>
    <defs></defs>
    <g id="new" stroke="none" stroke-width="1" fill="none" fill-rule="evenodd">
        <g id="Desktop-Copy" transform="translate(-891.000000, -763.000000)" stroke="#214244">
            <g id="Page-1" transform="translate(893.000000, 765.000000)">
                <path d="M25.2899,10.9311 C19.2899,11.0301 18.5389,26.0451 23.5379,25.9621 C29.5379,25.8631 30.2889,10.8481 25.2899,10.9311 Z" id="Stroke-1" stroke-width="4"></path>
                <path d="M-0.0002,23.8511 C-0.0002,23.8511 17.8648,15.5541 17.6838,4.5561 C17.5428,-3.9429 7.1018,-0.2699 7.3248,13.2281 C7.3668,15.7281 6.5488,26.7431 12.0478,26.6521 C16.5468,26.5781 20.4058,18.0131 20.4058,18.0131" id="Stroke-3" stroke-width="4" stroke-linecap="round" stroke-linejoin="round"></path>
                <path d="M36.1561,2.75 C36.1561,2.75 29.5371,25.863 35.5361,25.764 C38.5361,25.714 41.4691,21.665 41.4691,21.665 L43.1271,19.5" id="Stroke-5" stroke-width="4" stroke-linecap="round" stroke-linejoin="round"></path>
                <path d="M46.1712,3.5845 C46.1712,3.5845 39.5362,25.6975 45.5352,25.5985 C48.5342,25.5485 51.4682,21.4995 51.4682,21.4995" id="Stroke-7" stroke-width="4" stroke-linecap="round" stroke-linejoin="round"></path>
                <path d="M52.432,19.3135 C52.432,19.3135 60.497,17.5575 60.429,13.4365 C60.328,7.3505 51.549,11.4965 51.664,18.4545 C51.715,21.5085 52.339,25.4855 56.852,25.4105 C59.724,25.3635 63.105,21.4345 63.105,21.4345" id="Stroke-9" stroke-width="4" stroke-linecap="round" stroke-linejoin="round"></path>
                <path d="M27.1595,11.2207 L49.2965,11.6777" id="Stroke-11" stroke-width="3" stroke-linecap="round" stroke-linejoin="round"></path>
            </g>
        </g>
    </g>
</svg>