<svg xmlns="http://www.w3.org/2000/svg" viewBox="0 0 71.07 24.06"><title>lotte_1</title><g id="Layer_2" data-name="Layer 2"><g id="Layer_1-2" data-name="Layer 1"><path d="M0,24.06V0H5.71V2.5h-3v19h3v2.54Z"/><path d="M10.69,20V2.12H14V20Z"/><path d="M22.94,7.48A6.6,6.6,0,0,1,25.47,8a6,6,0,0,1,3.36,3.37,6.83,6.83,0,0,1,.48,2.59,6.74,6.74,0,0,1-.48,2.58,6.26,6.26,0,0,1-1.33,2,6,6,0,0,1-2,1.35,6.89,6.89,0,0,1-5.06,0,6,6,0,0,1-2-1.35,6.24,6.24,0,0,1-1.33-2,6.73,6.73,0,0,1-.48-2.58A6.83,6.83,0,0,1,17,11.34,6,6,0,0,1,20.41,8,6.6,6.6,0,0,1,22.94,7.48Zm0,9.91a3.17,3.17,0,0,0,1.16-.22,2.77,2.77,0,0,0,1-.65,3.28,3.28,0,0,0,.68-1.07A4,4,0,0,0,26,13.93a4,4,0,0,0-.26-1.51,3.29,3.29,0,0,0-.68-1.07,2.78,2.78,0,0,0-1-.65,3.15,3.15,0,0,0-2.32,0,2.77,2.77,0,0,0-1,.65,3.28,3.28,0,0,0-.68,1.07,4,4,0,0,0-.26,1.51,4,4,0,0,0,.26,1.49,3.25,3.25,0,0,0,.68,1.09,2.76,2.76,0,0,0,1,.65A3.17,3.17,0,0,0,22.94,17.39Z"/><path d="M35.91,7.86h2.45v2.89H35.91v5.13A1.42,1.42,0,0,0,36.27,17a1.6,1.6,0,0,0,1.07.31l.59,0a1.59,1.59,0,0,0,.42-.07v2.7a3.82,3.82,0,0,1-.68.2,5.76,5.76,0,0,1-1.17.1,3.91,3.91,0,0,1-2.82-1,3.65,3.65,0,0,1-1-2.77V10.75h-2.2V7.86h.62a1.73,1.73,0,0,0,1.42-.56,2.09,2.09,0,0,0,.46-1.37V4.22h3Z"/><path d="M45.12,7.86h2.45v2.89H45.12v5.13A1.42,1.42,0,0,0,45.48,17a1.6,1.6,0,0,0,1.07.31l.59,0a1.59,1.59,0,0,0,.42-.07v2.7a3.82,3.82,0,0,1-.68.2,5.76,5.76,0,0,1-1.17.1,3.91,3.91,0,0,1-2.82-1,3.65,3.65,0,0,1-1-2.77V10.75h-2.2V7.86h.62A1.73,1.73,0,0,0,41.7,7.3a2.09,2.09,0,0,0,.46-1.37V4.22h3Z"/><path d="M49.49,11.34a5.07,5.07,0,0,1,.7-1.49,5.18,5.18,0,0,1,1.17-1.22A5.65,5.65,0,0,1,53,7.79a6.41,6.41,0,0,1,2-.31,6.52,6.52,0,0,1,2.4.44,6,6,0,0,1,2,1.27,6,6,0,0,1,1.37,2A7,7,0,0,1,61.3,14a6.8,6.8,0,0,1-.49,2.64,6.15,6.15,0,0,1-1.32,2,5.94,5.94,0,0,1-1.91,1.28A6.35,6.35,0,0,1,50.9,18.7a6.47,6.47,0,0,1-1.58-4.62c0-.23,0-.45,0-.65s0-.33,0-.36h8.7a2.62,2.62,0,0,0-.28-1.1,3,3,0,0,0-.67-.88,3,3,0,0,0-1-.58A3.19,3.19,0,0,0,55,10.3a2.85,2.85,0,0,0-1.82.52,3,3,0,0,0-1,1.33Zm3.06,4a3,3,0,0,0,.19.88,2.12,2.12,0,0,0,.49.77,2.59,2.59,0,0,0,.83.54,3.1,3.1,0,0,0,1.21.21,2.74,2.74,0,0,0,1.14-.22,2.78,2.78,0,0,0,.84-.57,2.52,2.52,0,0,0,.53-.77,2.42,2.42,0,0,0,.21-.84Z"/><path d="M65.37,24.06V21.52h2.94V2.5H65.37V0h5.71V24.06Z"/></g></g></svg>