<?xml version="1.0" encoding="UTF-8"?>
<svg width="58px" height="58px" viewBox="0 0 58 58" version="1.1" xmlns="http://www.w3.org/2000/svg" xmlns:xlink="http://www.w3.org/1999/xlink">
    <!-- Generator: Sketch 46.2 (44496) - http://www.bohemiancoding.com/sketch -->
    <title>Group</title>
    <desc>Created with Sketch.</desc>
    <defs></defs>
    <g id="new" stroke="none" stroke-width="1" fill="none" fill-rule="evenodd">
        <g id="Desktop-Copy" transform="translate(-344.000000, -60.000000)">
            <g id="Group" transform="translate(344.000000, 60.000000)">
                <circle id="Oval-2" fill="#268B77" cx="29" cy="29" r="29"></circle>
                <path d="M13.52,36 L21.62,36 L21.62,33.52 L16.48,33.52 L16.48,22.96 L13.52,22.96 L13.52,36 Z M28.42,36.24 C24.92,36.24 22.5,33.68 22.5,29.42 C22.5,25.16 24.92,22.72 28.42,22.72 C31.94,22.72 34.34,25.18 34.34,29.42 C34.34,33.68 31.94,36.24 28.42,36.24 Z M28.42,33.7 C30.2,33.7 31.32,32.04 31.32,29.42 C31.32,26.82 30.2,25.26 28.42,25.26 C26.66,25.26 25.52,26.82 25.52,29.42 C25.52,32.04 26.66,33.7 28.42,33.7 Z M38.94,36 L41.88,36 L41.88,25.44 L45.46,25.44 L45.46,22.96 L35.34,22.96 L35.34,25.44 L38.94,25.44 L38.94,36 Z" id="LOT" fill="#FFFFFF"></path>
            </g>
        </g>
    </g>
</svg>